<svg xmlns="http://www.w3.org/2000/svg" width="1200" height="630" viewBox="0 0 1200 630" fill="none">
  <defs>
    <linearGradient id="bg" x1="0" y1="0" x2="1200" y2="630" gradientUnits="userSpaceOnUse">
      <stop offset="0%" stop-color="#0f172a"/>
      <stop offset="100%" stop-color="#1e293b"/>
    </linearGradient>
    <radialGradient id="glow1" cx="350" cy="280" r="320" gradientUnits="userSpaceOnUse">
      <stop offset="0%" stop-color="#0ea5e9" stop-opacity="0.13"/>
      <stop offset="100%" stop-color="#0ea5e9" stop-opacity="0"/>
    </radialGradient>
    <radialGradient id="glow2" cx="850" cy="350" r="300" gradientUnits="userSpaceOnUse">
      <stop offset="0%" stop-color="#22d3ee" stop-opacity="0.09"/>
      <stop offset="100%" stop-color="#22d3ee" stop-opacity="0"/>
    </radialGradient>
    <linearGradient id="shield" x1="0" y1="0" x2="1" y2="1">
      <stop offset="0%" stop-color="#0ea5e9"/>
      <stop offset="100%" stop-color="#22d3ee"/>
    </linearGradient>
  </defs>
  <rect width="1200" height="630" fill="url(#bg)"/>
  <rect width="1200" height="630" fill="url(#glow1)"/>
  <rect width="1200" height="630" fill="url(#glow2)"/>
  <!-- Grid -->
  <g opacity="0.03" stroke="#fff" stroke-width="1">
    <line x1="0" y1="0" x2="0" y2="630"/><line x1="60" y1="0" x2="60" y2="630"/>
    <line x1="120" y1="0" x2="120" y2="630"/><line x1="180" y1="0" x2="180" y2="630"/>
    <line x1="240" y1="0" x2="240" y2="630"/><line x1="300" y1="0" x2="300" y2="630"/>
    <line x1="360" y1="0" x2="360" y2="630"/><line x1="420" y1="0" x2="420" y2="630"/>
    <line x1="480" y1="0" x2="480" y2="630"/><line x1="540" y1="0" x2="540" y2="630"/>
    <line x1="600" y1="0" x2="600" y2="630"/><line x1="660" y1="0" x2="660" y2="630"/>
    <line x1="720" y1="0" x2="720" y2="630"/><line x1="780" y1="0" x2="780" y2="630"/>
    <line x1="840" y1="0" x2="840" y2="630"/><line x1="900" y1="0" x2="900" y2="630"/>
    <line x1="960" y1="0" x2="960" y2="630"/><line x1="1020" y1="0" x2="1020" y2="630"/>
    <line x1="1080" y1="0" x2="1080" y2="630"/><line x1="1140" y1="0" x2="1140" y2="630"/>
    <line x1="0" y1="60" x2="1200" y2="60"/><line x1="0" y1="120" x2="1200" y2="120"/>
    <line x1="0" y1="180" x2="1200" y2="180"/><line x1="0" y1="240" x2="1200" y2="240"/>
    <line x1="0" y1="300" x2="1200" y2="300"/><line x1="0" y1="360" x2="1200" y2="360"/>
    <line x1="0" y1="420" x2="1200" y2="420"/><line x1="0" y1="480" x2="1200" y2="480"/>
    <line x1="0" y1="540" x2="1200" y2="540"/>
  </g>
  <!-- Shield icon (center) -->
  <g transform="translate(600, 250)">
    <!-- Outer shield glow -->
    <path d="M0 -110 L75 -80 L75 20 C75 75 0 120 0 120 C0 120 -75 75 -75 20 L-75 -80Z" fill="#0ea5e9" opacity="0.06"/>
    <!-- Shield body -->
    <path d="M0 -95 L65 -68 L65 15 C65 62 0 102 0 102 C0 102 -65 62 -65 15 L-65 -68Z" fill="#1e293b" stroke="#0ea5e9" stroke-width="2.5"/>
    <!-- Shield inner highlight -->
    <path d="M0 -80 L52 -57 L52 10 C52 48 0 82 0 82 C0 82 -52 48 -52 10 L-52 -57Z" fill="#0ea5e9" opacity="0.05"/>
    <!-- Checkmark on shield -->
    <path d="M-22 5 L-8 20 L25 -15" fill="none" stroke="url(#shield)" stroke-width="5" stroke-linecap="round" stroke-linejoin="round" opacity="0.85"/>
  </g>
  <!-- Lock icon (left) -->
  <g transform="translate(380, 230)" opacity="0.4">
    <!-- Lock body -->
    <rect x="-28" y="0" width="56" height="44" rx="8" fill="#1e293b" stroke="#0ea5e9" stroke-width="1.5"/>
    <!-- Lock shackle -->
    <path d="M-16 0 L-16 -18 C-16 -32 16 -32 16 -18 L16 0" fill="none" stroke="#0ea5e9" stroke-width="2" opacity="0.7"/>
    <!-- Keyhole -->
    <circle cx="0" cy="16" r="6" fill="#0ea5e9" opacity="0.3"/>
    <rect x="-2.5" y="18" width="5" height="12" rx="2" fill="#0ea5e9" opacity="0.3"/>
  </g>
  <!-- Eye/privacy icon (right) -->
  <g transform="translate(820, 230)" opacity="0.4">
    <!-- Eye shape -->
    <path d="M-40 0 C-20 -25 20 -25 40 0 C20 25 -20 25 -40 0Z" fill="none" stroke="#22d3ee" stroke-width="1.5"/>
    <!-- Iris -->
    <circle cx="0" cy="0" r="12" fill="none" stroke="#22d3ee" stroke-width="1.5" opacity="0.6"/>
    <circle cx="0" cy="0" r="5" fill="#22d3ee" opacity="0.3"/>
    <!-- Strike-through line (no viewing) -->
    <line x1="-35" y1="30" x2="35" y2="-30" stroke="#ef4444" stroke-width="2" opacity="0.5" stroke-linecap="round"/>
  </g>
  <!-- Warning triangle (top left accent) -->
  <g transform="translate(250, 160)" opacity="0.25">
    <path d="M0 -20 L18 14 L-18 14Z" fill="none" stroke="#f59e0b" stroke-width="1.5" stroke-linejoin="round"/>
    <line x1="0" y1="-8" x2="0" y2="4" stroke="#f59e0b" stroke-width="2" stroke-linecap="round"/>
    <circle cx="0" cy="9" r="1.5" fill="#f59e0b"/>
  </g>
  <!-- Warning triangle (right accent) -->
  <g transform="translate(950, 180)" opacity="0.2">
    <path d="M0 -16 L14 11 L-14 11Z" fill="none" stroke="#f59e0b" stroke-width="1.5" stroke-linejoin="round"/>
    <line x1="0" y1="-6" x2="0" y2="3" stroke="#f59e0b" stroke-width="1.5" stroke-linecap="round"/>
    <circle cx="0" cy="7" r="1.2" fill="#f59e0b"/>
  </g>
  <!-- Broken chain links (bottom left) -->
  <g transform="translate(300, 380)" opacity="0.2">
    <ellipse cx="-12" cy="0" rx="14" ry="10" fill="none" stroke="#0ea5e9" stroke-width="1.5"/>
    <ellipse cx="18" cy="0" rx="14" ry="10" fill="none" stroke="#22d3ee" stroke-width="1.5"/>
    <line x1="2" y1="-6" x2="8" y2="6" stroke="#ef4444" stroke-width="1.5" opacity="0.6" stroke-linecap="round"/>
  </g>
  <!-- Broken chain links (bottom right) -->
  <g transform="translate(900, 370)" opacity="0.15">
    <ellipse cx="-12" cy="0" rx="14" ry="10" fill="none" stroke="#22d3ee" stroke-width="1.5"/>
    <ellipse cx="18" cy="0" rx="14" ry="10" fill="none" stroke="#0ea5e9" stroke-width="1.5"/>
    <line x1="2" y1="-6" x2="8" y2="6" stroke="#ef4444" stroke-width="1.5" opacity="0.6" stroke-linecap="round"/>
  </g>
  <!-- Text -->
  <text x="600" y="430" text-anchor="middle" font-family="system-ui, -apple-system, sans-serif" font-size="32" font-weight="700" fill="white" letter-spacing="0.5">Private Instagram Viewer</text>
  <text x="600" y="468" text-anchor="middle" font-family="system-ui, -apple-system, sans-serif" font-size="16" fill="#94a3b8" letter-spacing="1">5 ESSENTIAL FACTS ABOUT PRIVACY &amp; SCAM PROTECTION</text>
  <!-- Decorative dots -->
  <circle cx="110" cy="100" r="3" fill="#0ea5e9" opacity="0.3"/>
  <circle cx="1090" cy="530" r="3" fill="#22d3ee" opacity="0.3"/>
  <circle cx="160" cy="510" r="2" fill="#0ea5e9" opacity="0.2"/>
  <circle cx="1040" cy="120" r="2" fill="#22d3ee" opacity="0.2"/>
  <circle cx="930" cy="75" r="4" fill="#0ea5e9" opacity="0.15"/>
  <circle cx="270" cy="555" r="4" fill="#22d3ee" opacity="0.15"/>
</svg>
