<svg xmlns="http://www.w3.org/2000/svg" width="1200" height="630" viewBox="0 0 1200 630" fill="none">
  <defs>
    <linearGradient id="bg" x1="0" y1="0" x2="1200" y2="630" gradientUnits="userSpaceOnUse">
      <stop offset="0%" stop-color="#0f172a"/>
      <stop offset="100%" stop-color="#1e293b"/>
    </linearGradient>
    <radialGradient id="glow1" cx="350" cy="280" r="320" gradientUnits="userSpaceOnUse">
      <stop offset="0%" stop-color="#0ea5e9" stop-opacity="0.13"/>
      <stop offset="100%" stop-color="#0ea5e9" stop-opacity="0"/>
    </radialGradient>
    <radialGradient id="glow2" cx="850" cy="350" r="300" gradientUnits="userSpaceOnUse">
      <stop offset="0%" stop-color="#22d3ee" stop-opacity="0.09"/>
      <stop offset="100%" stop-color="#22d3ee" stop-opacity="0"/>
    </radialGradient>
    <linearGradient id="play" x1="0" y1="0" x2="1" y2="1">
      <stop offset="0%" stop-color="#0ea5e9"/>
      <stop offset="100%" stop-color="#22d3ee"/>
    </linearGradient>
  </defs>
  <rect width="1200" height="630" fill="url(#bg)"/>
  <rect width="1200" height="630" fill="url(#glow1)"/>
  <rect width="1200" height="630" fill="url(#glow2)"/>
  <!-- Grid -->
  <g opacity="0.03" stroke="#fff" stroke-width="1">
    <line x1="0" y1="0" x2="0" y2="630"/><line x1="60" y1="0" x2="60" y2="630"/>
    <line x1="120" y1="0" x2="120" y2="630"/><line x1="180" y1="0" x2="180" y2="630"/>
    <line x1="240" y1="0" x2="240" y2="630"/><line x1="300" y1="0" x2="300" y2="630"/>
    <line x1="360" y1="0" x2="360" y2="630"/><line x1="420" y1="0" x2="420" y2="630"/>
    <line x1="480" y1="0" x2="480" y2="630"/><line x1="540" y1="0" x2="540" y2="630"/>
    <line x1="600" y1="0" x2="600" y2="630"/><line x1="660" y1="0" x2="660" y2="630"/>
    <line x1="720" y1="0" x2="720" y2="630"/><line x1="780" y1="0" x2="780" y2="630"/>
    <line x1="840" y1="0" x2="840" y2="630"/><line x1="900" y1="0" x2="900" y2="630"/>
    <line x1="960" y1="0" x2="960" y2="630"/><line x1="1020" y1="0" x2="1020" y2="630"/>
    <line x1="1080" y1="0" x2="1080" y2="630"/><line x1="1140" y1="0" x2="1140" y2="630"/>
    <line x1="0" y1="60" x2="1200" y2="60"/><line x1="0" y1="120" x2="1200" y2="120"/>
    <line x1="0" y1="180" x2="1200" y2="180"/><line x1="0" y1="240" x2="1200" y2="240"/>
    <line x1="0" y1="300" x2="1200" y2="300"/><line x1="0" y1="360" x2="1200" y2="360"/>
    <line x1="0" y1="420" x2="1200" y2="420"/><line x1="0" y1="480" x2="1200" y2="480"/>
    <line x1="0" y1="540" x2="1200" y2="540"/>
  </g>
  <!-- Film reel / video icon composition -->
  <g transform="translate(600, 260)">
    <!-- Outer reel circle -->
    <circle cx="0" cy="0" r="100" fill="none" stroke="#0ea5e9" stroke-width="2" opacity="0.2"/>
    <circle cx="0" cy="0" r="85" fill="none" stroke="#0ea5e9" stroke-width="1" opacity="0.1" stroke-dasharray="6 6"/>
    <!-- Film strip left -->
    <g transform="translate(-140, -60)" opacity="0.4">
      <rect width="50" height="120" rx="6" fill="#1e293b" stroke="#334155" stroke-width="1.5"/>
      <rect x="5" y="8" width="12" height="8" rx="2" fill="#0ea5e9" opacity="0.3"/>
      <rect x="33" y="8" width="12" height="8" rx="2" fill="#0ea5e9" opacity="0.3"/>
      <rect x="5" y="24" width="12" height="8" rx="2" fill="#0ea5e9" opacity="0.3"/>
      <rect x="33" y="24" width="12" height="8" rx="2" fill="#0ea5e9" opacity="0.3"/>
      <rect x="5" y="40" width="40" height="40" rx="3" fill="#0ea5e9" opacity="0.1"/>
      <rect x="5" y="88" width="12" height="8" rx="2" fill="#0ea5e9" opacity="0.3"/>
      <rect x="33" y="88" width="12" height="8" rx="2" fill="#0ea5e9" opacity="0.3"/>
      <rect x="5" y="104" width="12" height="8" rx="2" fill="#0ea5e9" opacity="0.3"/>
      <rect x="33" y="104" width="12" height="8" rx="2" fill="#0ea5e9" opacity="0.3"/>
    </g>
    <!-- Film strip right -->
    <g transform="translate(90, -60)" opacity="0.4">
      <rect width="50" height="120" rx="6" fill="#1e293b" stroke="#334155" stroke-width="1.5"/>
      <rect x="5" y="8" width="12" height="8" rx="2" fill="#22d3ee" opacity="0.3"/>
      <rect x="33" y="8" width="12" height="8" rx="2" fill="#22d3ee" opacity="0.3"/>
      <rect x="5" y="24" width="12" height="8" rx="2" fill="#22d3ee" opacity="0.3"/>
      <rect x="33" y="24" width="12" height="8" rx="2" fill="#22d3ee" opacity="0.3"/>
      <rect x="5" y="40" width="40" height="40" rx="3" fill="#22d3ee" opacity="0.1"/>
      <rect x="5" y="88" width="12" height="8" rx="2" fill="#22d3ee" opacity="0.3"/>
      <rect x="33" y="88" width="12" height="8" rx="2" fill="#22d3ee" opacity="0.3"/>
      <rect x="5" y="104" width="12" height="8" rx="2" fill="#22d3ee" opacity="0.3"/>
      <rect x="33" y="104" width="12" height="8" rx="2" fill="#22d3ee" opacity="0.3"/>
    </g>
    <!-- Center play button -->
    <circle cx="0" cy="0" r="50" fill="#0ea5e9" opacity="0.1"/>
    <circle cx="0" cy="0" r="40" fill="#1e293b" stroke="#0ea5e9" stroke-width="2.5"/>
    <path d="M-12 -18 L20 0 L-12 18Z" fill="url(#play)" opacity="0.9"/>
    <!-- Reels icon (clapperboard stripe) -->
    <g transform="translate(0, -75)" opacity="0.6">
      <rect x="-30" y="-8" width="60" height="16" rx="4" fill="#0ea5e9" opacity="0.2" stroke="#0ea5e9" stroke-width="1"/>
      <line x1="-15" y1="-8" x2="-8" y2="8" stroke="#0ea5e9" stroke-width="1.5" opacity="0.5"/>
      <line x1="5" y1="-8" x2="12" y2="8" stroke="#0ea5e9" stroke-width="1.5" opacity="0.5"/>
    </g>
  </g>
  <!-- Musical note accents -->
  <g transform="translate(440, 170)" opacity="0.25">
    <circle cx="0" cy="0" r="6" fill="#22d3ee"/>
    <rect x="5" y="-25" width="3" height="25" fill="#22d3ee"/>
    <path d="M8 -25 Q20 -30 8 -18" fill="#22d3ee"/>
  </g>
  <g transform="translate(770, 150)" opacity="0.2">
    <circle cx="0" cy="0" r="5" fill="#0ea5e9"/>
    <rect x="4" y="-20" width="2.5" height="20" fill="#0ea5e9"/>
    <path d="M6.5 -20 Q16 -24 6.5 -14" fill="#0ea5e9"/>
  </g>
  <!-- Text -->
  <text x="600" y="440" text-anchor="middle" font-family="system-ui, -apple-system, sans-serif" font-size="32" font-weight="700" fill="white" letter-spacing="0.5">Instagram Reels Viewer</text>
  <text x="600" y="475" text-anchor="middle" font-family="system-ui, -apple-system, sans-serif" font-size="16" fill="#94a3b8" letter-spacing="1">WATCH &amp; SAVE PUBLIC REELS WITHOUT LOGIN</text>
  <!-- Decorative dots -->
  <circle cx="110" cy="100" r="3" fill="#0ea5e9" opacity="0.3"/>
  <circle cx="1090" cy="530" r="3" fill="#22d3ee" opacity="0.3"/>
  <circle cx="160" cy="510" r="2" fill="#0ea5e9" opacity="0.2"/>
  <circle cx="1040" cy="120" r="2" fill="#22d3ee" opacity="0.2"/>
  <circle cx="930" cy="75" r="4" fill="#0ea5e9" opacity="0.15"/>
  <circle cx="270" cy="555" r="4" fill="#22d3ee" opacity="0.15"/>
</svg>
