<svg xmlns="http://www.w3.org/2000/svg" viewBox="0 0 1200 630" width="1200" height="630">
  <defs>
    <linearGradient id="bg" x1="0%" y1="0%" x2="100%" y2="100%">
      <stop offset="0%" style="stop-color:#0f172a"/>
      <stop offset="100%" style="stop-color:#1e293b"/>
    </linearGradient>
    <radialGradient id="orb1" cx="25%" cy="35%" r="40%">
      <stop offset="0%" style="stop-color:#0ea5e9;stop-opacity:0.12"/>
      <stop offset="100%" style="stop-color:#0ea5e9;stop-opacity:0"/>
    </radialGradient>
    <radialGradient id="orb2" cx="78%" cy="60%" r="35%">
      <stop offset="0%" style="stop-color:#8b5cf6;stop-opacity:0.1"/>
      <stop offset="100%" style="stop-color:#8b5cf6;stop-opacity:0"/>
    </radialGradient>
  </defs>
  <rect width="1200" height="630" fill="url(#bg)"/>
  <rect width="1200" height="630" fill="url(#orb1)"/>
  <rect width="1200" height="630" fill="url(#orb2)"/>
  <!-- Profile card outline -->
  <rect x="420" y="120" width="360" height="390" rx="20" fill="none" stroke="#0ea5e9" stroke-width="2" opacity="0.5"/>
  <!-- Profile circle -->
  <circle cx="600" cy="210" r="45" fill="none" stroke="#0ea5e9" stroke-width="2" opacity="0.6"/>
  <circle cx="600" cy="195" r="16" fill="#0ea5e9" opacity="0.3"/>
  <ellipse cx="600" cy="228" rx="24" ry="16" fill="#0ea5e9" opacity="0.25"/>
  <!-- Username line -->
  <rect x="540" y="270" width="120" height="8" rx="4" fill="#0ea5e9" opacity="0.4"/>
  <!-- Bio text lines -->
  <rect x="470" y="300" width="260" height="6" rx="3" fill="#0ea5e9" opacity="0.25"/>
  <rect x="490" y="316" width="220" height="6" rx="3" fill="#0ea5e9" opacity="0.2"/>
  <rect x="510" y="332" width="180" height="6" rx="3" fill="#0ea5e9" opacity="0.15"/>
  <!-- Stats row -->
  <rect x="460" y="365" width="50" height="6" rx="3" fill="#0ea5e9" opacity="0.2"/>
  <rect x="540" y="365" width="50" height="6" rx="3" fill="#0ea5e9" opacity="0.2"/>
  <rect x="620" y="365" width="50" height="6" rx="3" fill="#0ea5e9" opacity="0.2"/>
  <!-- Edit/CTA button -->
  <rect x="480" y="400" width="240" height="34" rx="8" fill="none" stroke="#0ea5e9" stroke-width="1.5" opacity="0.4"/>
  <rect x="530" y="412" width="140" height="8" rx="4" fill="#0ea5e9" opacity="0.25"/>
  <!-- Cursor/edit pencil -->
  <line x1="710" y1="308" x2="730" y2="288" stroke="#0ea5e9" stroke-width="2" stroke-linecap="round" opacity="0.6"/>
  <line x1="730" y1="288" x2="738" y2="296" stroke="#0ea5e9" stroke-width="2" stroke-linecap="round" opacity="0.6"/>
  <line x1="738" y1="296" x2="718" y2="316" stroke="#0ea5e9" stroke-width="2" stroke-linecap="round" opacity="0.6"/>
  <!-- Sparkle decorations -->
  <path d="M300 200 L303 210 L313 213 L303 216 L300 226 L297 216 L287 213 L297 210 Z" fill="#0ea5e9" opacity="0.3"/>
  <path d="M880 350 L882 356 L888 358 L882 360 L880 366 L878 360 L872 358 L878 356 Z" fill="#0ea5e9" opacity="0.25"/>
  <path d="M250 400 L252 406 L258 408 L252 410 L250 416 L248 410 L242 408 L248 406 Z" fill="#8b5cf6" opacity="0.2"/>
  <!-- Floating text snippets -->
  <rect x="180" y="280" width="80" height="20" rx="4" fill="#0ea5e9" opacity="0.08"/>
  <rect x="195" y="287" width="50" height="6" rx="3" fill="#0ea5e9" opacity="0.15"/>
  <rect x="920" y="230" width="80" height="20" rx="4" fill="#0ea5e9" opacity="0.08"/>
  <rect x="935" y="237" width="50" height="6" rx="3" fill="#0ea5e9" opacity="0.15"/>
  <!-- Decorative dots -->
  <circle cx="160" cy="170" r="3" fill="#0ea5e9" opacity="0.3"/>
  <circle cx="1040" cy="460" r="3" fill="#0ea5e9" opacity="0.3"/>
  <circle cx="210" cy="490" r="2" fill="#8b5cf6" opacity="0.2"/>
  <circle cx="990" cy="140" r="2" fill="#8b5cf6" opacity="0.2"/>
</svg>
