<svg xmlns="http://www.w3.org/2000/svg" viewBox="0 0 1200 630" fill="none">
  <defs>
    <linearGradient id="bg" x1="0" y1="0" x2="1200" y2="630" gradientUnits="userSpaceOnUse">
      <stop offset="0%" stop-color="#0f172a"/>
      <stop offset="100%" stop-color="#1e293b"/>
    </linearGradient>
    <radialGradient id="glow1" cx="350" cy="250" r="320" gradientUnits="userSpaceOnUse">
      <stop offset="0%" stop-color="#0ea5e9" stop-opacity="0.15"/>
      <stop offset="100%" stop-color="#0ea5e9" stop-opacity="0"/>
    </radialGradient>
    <radialGradient id="glow2" cx="850" cy="380" r="350" gradientUnits="userSpaceOnUse">
      <stop offset="0%" stop-color="#22d3ee" stop-opacity="0.1"/>
      <stop offset="100%" stop-color="#22d3ee" stop-opacity="0"/>
    </radialGradient>
    <linearGradient id="accent" x1="0" y1="0" x2="1" y2="1">
      <stop offset="0%" stop-color="#0ea5e9"/>
      <stop offset="50%" stop-color="#22d3ee"/>
      <stop offset="100%" stop-color="#0ea5e9"/>
    </linearGradient>
  </defs>
  <rect width="1200" height="630" fill="url(#bg)"/>
  <rect width="1200" height="630" fill="url(#glow1)"/>
  <rect width="1200" height="630" fill="url(#glow2)"/>
  <!-- Grid pattern -->
  <g opacity="0.03" stroke="#fff" stroke-width="1">
    <line x1="0" y1="0" x2="0" y2="630"/><line x1="60" y1="0" x2="60" y2="630"/>
    <line x1="120" y1="0" x2="120" y2="630"/><line x1="180" y1="0" x2="180" y2="630"/>
    <line x1="240" y1="0" x2="240" y2="630"/><line x1="300" y1="0" x2="300" y2="630"/>
    <line x1="360" y1="0" x2="360" y2="630"/><line x1="420" y1="0" x2="420" y2="630"/>
    <line x1="480" y1="0" x2="480" y2="630"/><line x1="540" y1="0" x2="540" y2="630"/>
    <line x1="600" y1="0" x2="600" y2="630"/><line x1="660" y1="0" x2="660" y2="630"/>
    <line x1="720" y1="0" x2="720" y2="630"/><line x1="780" y1="0" x2="780" y2="630"/>
    <line x1="840" y1="0" x2="840" y2="630"/><line x1="900" y1="0" x2="900" y2="630"/>
    <line x1="960" y1="0" x2="960" y2="630"/><line x1="1020" y1="0" x2="1020" y2="630"/>
    <line x1="1080" y1="0" x2="1080" y2="630"/><line x1="1140" y1="0" x2="1140" y2="630"/>
    <line x1="0" y1="60" x2="1200" y2="60"/><line x1="0" y1="120" x2="1200" y2="120"/>
    <line x1="0" y1="180" x2="1200" y2="180"/><line x1="0" y1="240" x2="1200" y2="240"/>
    <line x1="0" y1="300" x2="1200" y2="300"/><line x1="0" y1="360" x2="1200" y2="360"/>
    <line x1="0" y1="420" x2="1200" y2="420"/><line x1="0" y1="480" x2="1200" y2="480"/>
    <line x1="0" y1="540" x2="1200" y2="540"/>
  </g>
  <!-- Browser window icon (center-left) -->
  <g transform="translate(390, 240)">
    <rect x="0" y="0" width="160" height="110" rx="10" fill="none" stroke="url(#accent)" stroke-width="2.5"/>
    <line x1="0" y1="28" x2="160" y2="28" stroke="url(#accent)" stroke-width="2"/>
    <circle cx="18" cy="14" r="4" fill="#0ea5e9" opacity="0.6"/>
    <circle cx="34" cy="14" r="4" fill="#22d3ee" opacity="0.5"/>
    <circle cx="50" cy="14" r="4" fill="#0ea5e9" opacity="0.4"/>
    <rect x="68" y="9" width="78" height="10" rx="5" fill="#0ea5e9" opacity="0.15"/>
    <!-- Browser content lines -->
    <rect x="16" y="42" width="80" height="6" rx="3" fill="#0ea5e9" opacity="0.25"/>
    <rect x="16" y="56" width="128" height="6" rx="3" fill="#22d3ee" opacity="0.15"/>
    <rect x="16" y="70" width="100" height="6" rx="3" fill="#0ea5e9" opacity="0.2"/>
    <rect x="16" y="84" width="60" height="6" rx="3" fill="#22d3ee" opacity="0.12"/>
  </g>
  <!-- Globe icon (center) -->
  <g transform="translate(600, 280)">
    <circle cx="0" cy="0" r="55" fill="none" stroke="url(#accent)" stroke-width="2.5"/>
    <ellipse cx="0" cy="0" rx="22" ry="55" fill="none" stroke="#0ea5e9" stroke-width="1.5" opacity="0.6"/>
    <line x1="-55" y1="0" x2="55" y2="0" stroke="#22d3ee" stroke-width="1.5" opacity="0.5"/>
    <ellipse cx="0" cy="-22" rx="48" ry="12" fill="none" stroke="#0ea5e9" stroke-width="1" opacity="0.35"/>
    <ellipse cx="0" cy="22" rx="48" ry="12" fill="none" stroke="#22d3ee" stroke-width="1" opacity="0.35"/>
    <!-- Cursor/pointer on globe -->
    <g transform="translate(28, -18)">
      <path d="M0 0 L0 18 L5 14 L9 22 L12 20 L8 12 L14 12Z" fill="#22d3ee" opacity="0.8"/>
    </g>
  </g>
  <!-- Web/network node icon (center-right) -->
  <g transform="translate(810, 240)">
    <circle cx="80" cy="55" r="14" fill="none" stroke="url(#accent)" stroke-width="2"/>
    <circle cx="80" cy="55" r="5" fill="#0ea5e9" opacity="0.5"/>
    <circle cx="30" cy="20" r="10" fill="none" stroke="#0ea5e9" stroke-width="1.5" opacity="0.6"/>
    <circle cx="30" cy="20" r="4" fill="#22d3ee" opacity="0.4"/>
    <circle cx="130" cy="20" r="10" fill="none" stroke="#22d3ee" stroke-width="1.5" opacity="0.6"/>
    <circle cx="130" cy="20" r="4" fill="#0ea5e9" opacity="0.4"/>
    <circle cx="30" cy="90" r="10" fill="none" stroke="#22d3ee" stroke-width="1.5" opacity="0.6"/>
    <circle cx="30" cy="90" r="4" fill="#0ea5e9" opacity="0.4"/>
    <circle cx="130" cy="90" r="10" fill="none" stroke="#0ea5e9" stroke-width="1.5" opacity="0.6"/>
    <circle cx="130" cy="90" r="4" fill="#22d3ee" opacity="0.4"/>
    <!-- Connection lines -->
    <line x1="40" y1="26" x2="68" y2="47" stroke="#0ea5e9" stroke-width="1.2" opacity="0.35"/>
    <line x1="120" y1="26" x2="92" y2="47" stroke="#22d3ee" stroke-width="1.2" opacity="0.35"/>
    <line x1="40" y1="84" x2="68" y2="63" stroke="#22d3ee" stroke-width="1.2" opacity="0.35"/>
    <line x1="120" y1="84" x2="92" y2="63" stroke="#0ea5e9" stroke-width="1.2" opacity="0.35"/>
  </g>
  <!-- Wi-Fi/signal arcs above globe -->
  <g transform="translate(600, 190)" opacity="0.5">
    <path d="M-12 0 A16 16 0 0 1 12 0" fill="none" stroke="#22d3ee" stroke-width="2" stroke-linecap="round"/>
    <path d="M-22 -8 A28 28 0 0 1 22 -8" fill="none" stroke="#0ea5e9" stroke-width="2" stroke-linecap="round"/>
    <path d="M-32 -16 A40 40 0 0 1 32 -16" fill="none" stroke="#22d3ee" stroke-width="2" stroke-linecap="round"/>
  </g>
  <!-- Text -->
  <text x="600" y="430" text-anchor="middle" font-family="system-ui, -apple-system, sans-serif" font-size="32" font-weight="700" fill="white" letter-spacing="0.5">Instagram Viewer Online</text>
  <text x="600" y="468" text-anchor="middle" font-family="system-ui, -apple-system, sans-serif" font-size="16" fill="#94a3b8" letter-spacing="1">BROWSE ANY PUBLIC PROFILE DIRECTLY IN YOUR BROWSER</text>
  <!-- Decorative dots -->
  <circle cx="100" cy="100" r="3" fill="#0ea5e9" opacity="0.3"/>
  <circle cx="1100" cy="530" r="3" fill="#22d3ee" opacity="0.3"/>
  <circle cx="150" cy="500" r="2" fill="#0ea5e9" opacity="0.2"/>
  <circle cx="1050" cy="130" r="2" fill="#22d3ee" opacity="0.2"/>
  <circle cx="950" cy="80" r="4" fill="#0ea5e9" opacity="0.15"/>
  <circle cx="250" cy="550" r="4" fill="#22d3ee" opacity="0.15"/>
  <circle cx="200" cy="200" r="2" fill="#22d3ee" opacity="0.2"/>
  <circle cx="1000" cy="480" r="3" fill="#0ea5e9" opacity="0.2"/>
</svg>