<svg xmlns="http://www.w3.org/2000/svg" viewBox="0 0 1200 630" fill="none">
  <defs>
    <linearGradient id="bg" x1="0" y1="0" x2="1200" y2="630" gradientUnits="userSpaceOnUse">
      <stop offset="0%" stop-color="#0f172a"/>
      <stop offset="100%" stop-color="#1e293b"/>
    </linearGradient>
    <radialGradient id="glow1" cx="300" cy="200" r="300" gradientUnits="userSpaceOnUse">
      <stop offset="0%" stop-color="#0ea5e9" stop-opacity="0.15"/>
      <stop offset="100%" stop-color="#0ea5e9" stop-opacity="0"/>
    </radialGradient>
    <radialGradient id="glow2" cx="900" cy="400" r="350" gradientUnits="userSpaceOnUse">
      <stop offset="0%" stop-color="#22d3ee" stop-opacity="0.1"/>
      <stop offset="100%" stop-color="#22d3ee" stop-opacity="0"/>
    </radialGradient>
    <linearGradient id="accent" x1="0" y1="0" x2="1" y2="1">
      <stop offset="0%" stop-color="#0ea5e9"/>
      <stop offset="50%" stop-color="#22d3ee"/>
      <stop offset="100%" stop-color="#0ea5e9"/>
    </linearGradient>
  </defs>
  <rect width="1200" height="630" fill="url(#bg)"/>
  <rect width="1200" height="630" fill="url(#glow1)"/>
  <rect width="1200" height="630" fill="url(#glow2)"/>
  <g opacity="0.03" stroke="#fff" stroke-width="1">
    <line x1="0" y1="0" x2="0" y2="630"/><line x1="60" y1="0" x2="60" y2="630"/><line x1="120" y1="0" x2="120" y2="630"/><line x1="180" y1="0" x2="180" y2="630"/><line x1="240" y1="0" x2="240" y2="630"/><line x1="300" y1="0" x2="300" y2="630"/><line x1="360" y1="0" x2="360" y2="630"/><line x1="420" y1="0" x2="420" y2="630"/><line x1="480" y1="0" x2="480" y2="630"/><line x1="540" y1="0" x2="540" y2="630"/><line x1="600" y1="0" x2="600" y2="630"/><line x1="660" y1="0" x2="660" y2="630"/><line x1="720" y1="0" x2="720" y2="630"/><line x1="780" y1="0" x2="780" y2="630"/><line x1="840" y1="0" x2="840" y2="630"/><line x1="900" y1="0" x2="900" y2="630"/><line x1="960" y1="0" x2="960" y2="630"/><line x1="1020" y1="0" x2="1020" y2="630"/><line x1="1080" y1="0" x2="1080" y2="630"/><line x1="1140" y1="0" x2="1140" y2="630"/>
    <line x1="0" y1="60" x2="1200" y2="60"/><line x1="0" y1="120" x2="1200" y2="120"/><line x1="0" y1="180" x2="1200" y2="180"/><line x1="0" y1="240" x2="1200" y2="240"/><line x1="0" y1="300" x2="1200" y2="300"/><line x1="0" y1="360" x2="1200" y2="360"/><line x1="0" y1="420" x2="1200" y2="420"/><line x1="0" y1="480" x2="1200" y2="480"/><line x1="0" y1="540" x2="1200" y2="540"/>
  </g>
  <!-- Calendar -->
  <g transform="translate(600, 220)">
    <rect x="-180" y="-120" width="360" height="260" rx="14" fill="#1e293b" stroke="url(#accent)" stroke-width="2" opacity="0.9"/>
    <!-- Calendar header -->
    <rect x="-180" y="-120" width="360" height="50" rx="14" fill="#0ea5e9" opacity="0.1"/>
    <rect x="-180" y="-70" width="360" height="1" fill="#0ea5e9" opacity="0.2"/>
    <text x="0" y="-88" text-anchor="middle" font-family="system-ui" font-size="16" font-weight="600" fill="#22d3ee" opacity="0.8">March 2026</text>
    <!-- Day headers -->
    <text x="-140" y="-50" text-anchor="middle" font-family="system-ui" font-size="9" fill="#94a3b8" opacity="0.5">MON</text>
    <text x="-90" y="-50" text-anchor="middle" font-family="system-ui" font-size="9" fill="#94a3b8" opacity="0.5">TUE</text>
    <text x="-40" y="-50" text-anchor="middle" font-family="system-ui" font-size="9" fill="#94a3b8" opacity="0.5">WED</text>
    <text x="10" y="-50" text-anchor="middle" font-family="system-ui" font-size="9" fill="#94a3b8" opacity="0.5">THU</text>
    <text x="60" y="-50" text-anchor="middle" font-family="system-ui" font-size="9" fill="#94a3b8" opacity="0.5">FRI</text>
    <text x="110" y="-50" text-anchor="middle" font-family="system-ui" font-size="9" fill="#94a3b8" opacity="0.5">SAT</text>
    <text x="150" y="-50" text-anchor="middle" font-family="system-ui" font-size="9" fill="#94a3b8" opacity="0.5">SUN</text>
    <!-- Calendar grid cells with content indicators -->
    <text x="-140" y="-22" text-anchor="middle" font-family="system-ui" font-size="12" fill="#94a3b8" opacity="0.6">1</text>
    <text x="-90" y="-22" text-anchor="middle" font-family="system-ui" font-size="12" fill="#94a3b8" opacity="0.6">2</text>
    <circle cx="-90" cy="-16" r="3" fill="#0ea5e9" opacity="0.6"/>
    <text x="-40" y="-22" text-anchor="middle" font-family="system-ui" font-size="12" fill="#94a3b8" opacity="0.6">3</text>
    <text x="10" y="-22" text-anchor="middle" font-family="system-ui" font-size="12" fill="#94a3b8" opacity="0.6">4</text>
    <circle cx="10" cy="-16" r="3" fill="#22d3ee" opacity="0.6"/>
    <text x="60" y="-22" text-anchor="middle" font-family="system-ui" font-size="12" fill="#94a3b8" opacity="0.6">5</text>
    <circle cx="60" cy="-16" r="3" fill="#0ea5e9" opacity="0.6"/>
    <!-- Highlighted day -->
    <circle cx="-40" cy="20" r="16" fill="#0ea5e9" opacity="0.2" stroke="#0ea5e9" stroke-width="1.5"/>
    <text x="-40" y="25" text-anchor="middle" font-family="system-ui" font-size="12" font-weight="700" fill="#0ea5e9">10</text>
    <text x="-140" y="25" text-anchor="middle" font-family="system-ui" font-size="12" fill="#94a3b8" opacity="0.6">8</text>
    <circle cx="-140" cy="31" r="3" fill="#22d3ee" opacity="0.6"/>
    <text x="-90" y="25" text-anchor="middle" font-family="system-ui" font-size="12" fill="#94a3b8" opacity="0.6">9</text>
    <text x="10" y="25" text-anchor="middle" font-family="system-ui" font-size="12" fill="#94a3b8" opacity="0.6">11</text>
    <circle cx="10" cy="31" r="3" fill="#0ea5e9" opacity="0.6"/>
    <text x="60" y="25" text-anchor="middle" font-family="system-ui" font-size="12" fill="#94a3b8" opacity="0.6">12</text>
    <circle cx="60" cy="31" r="3" fill="#22d3ee" opacity="0.6"/>
    <!-- Row 3 -->
    <text x="-140" y="70" text-anchor="middle" font-family="system-ui" font-size="12" fill="#94a3b8" opacity="0.6">15</text>
    <circle cx="-140" cy="76" r="3" fill="#0ea5e9" opacity="0.6"/>
    <text x="-90" y="70" text-anchor="middle" font-family="system-ui" font-size="12" fill="#94a3b8" opacity="0.6">16</text>
    <text x="-40" y="70" text-anchor="middle" font-family="system-ui" font-size="12" fill="#94a3b8" opacity="0.6">17</text>
    <circle cx="-40" cy="76" r="3" fill="#22d3ee" opacity="0.6"/>
    <text x="10" y="70" text-anchor="middle" font-family="system-ui" font-size="12" fill="#94a3b8" opacity="0.6">18</text>
    <circle cx="10" cy="76" r="3" fill="#0ea5e9" opacity="0.6"/>
    <text x="60" y="70" text-anchor="middle" font-family="system-ui" font-size="12" fill="#94a3b8" opacity="0.6">19</text>
    <!-- Clock icon -->
    <g transform="translate(140, -5)" opacity="0.5">
      <circle cx="0" cy="0" r="18" fill="none" stroke="#22d3ee" stroke-width="2"/>
      <line x1="0" y1="0" x2="0" y2="-10" stroke="#22d3ee" stroke-width="2" stroke-linecap="round"/>
      <line x1="0" y1="0" x2="7" y2="4" stroke="#22d3ee" stroke-width="2" stroke-linecap="round"/>
    </g>
  </g>
  <text x="600" y="440" text-anchor="middle" font-family="system-ui, -apple-system, sans-serif" font-size="32" font-weight="700" fill="white" letter-spacing="0.5">Instagram Content Calendar</text>
  <text x="600" y="475" text-anchor="middle" font-family="system-ui, -apple-system, sans-serif" font-size="16" fill="#94a3b8" letter-spacing="1">PLAN YOUR POSTING SCHEDULE FOR MAXIMUM REACH</text>
  <circle cx="100" cy="100" r="3" fill="#0ea5e9" opacity="0.3"/>
  <circle cx="1100" cy="530" r="3" fill="#22d3ee" opacity="0.3"/>
  <circle cx="150" cy="500" r="2" fill="#0ea5e9" opacity="0.2"/>
  <circle cx="1050" cy="130" r="2" fill="#22d3ee" opacity="0.2"/>
</svg>