<svg xmlns="http://www.w3.org/2000/svg" viewBox="0 0 1200 630" fill="none">
  <defs>
    <linearGradient id="bg" x1="0" y1="0" x2="1200" y2="630" gradientUnits="userSpaceOnUse">
      <stop offset="0%" stop-color="#0f172a"/>
      <stop offset="100%" stop-color="#1e293b"/>
    </linearGradient>
    <radialGradient id="glow1" cx="300" cy="200" r="300" gradientUnits="userSpaceOnUse">
      <stop offset="0%" stop-color="#0ea5e9" stop-opacity="0.15"/>
      <stop offset="100%" stop-color="#0ea5e9" stop-opacity="0"/>
    </radialGradient>
    <radialGradient id="glow2" cx="900" cy="400" r="350" gradientUnits="userSpaceOnUse">
      <stop offset="0%" stop-color="#22d3ee" stop-opacity="0.1"/>
      <stop offset="100%" stop-color="#22d3ee" stop-opacity="0"/>
    </radialGradient>
    <linearGradient id="ring" x1="0" y1="0" x2="1" y2="1">
      <stop offset="0%" stop-color="#0ea5e9"/>
      <stop offset="50%" stop-color="#22d3ee"/>
      <stop offset="100%" stop-color="#0ea5e9"/>
    </linearGradient>
  </defs>
  <rect width="1200" height="630" fill="url(#bg)"/>
  <rect width="1200" height="630" fill="url(#glow1)"/>
  <rect width="1200" height="630" fill="url(#glow2)"/>
  <!-- Grid pattern -->
  <g opacity="0.03" stroke="#fff" stroke-width="1">
    <line x1="0" y1="0" x2="0" y2="630"/><line x1="60" y1="0" x2="60" y2="630"/>
    <line x1="120" y1="0" x2="120" y2="630"/><line x1="180" y1="0" x2="180" y2="630"/>
    <line x1="240" y1="0" x2="240" y2="630"/><line x1="300" y1="0" x2="300" y2="630"/>
    <line x1="360" y1="0" x2="360" y2="630"/><line x1="420" y1="0" x2="420" y2="630"/>
    <line x1="480" y1="0" x2="480" y2="630"/><line x1="540" y1="0" x2="540" y2="630"/>
    <line x1="600" y1="0" x2="600" y2="630"/><line x1="660" y1="0" x2="660" y2="630"/>
    <line x1="720" y1="0" x2="720" y2="630"/><line x1="780" y1="0" x2="780" y2="630"/>
    <line x1="840" y1="0" x2="840" y2="630"/><line x1="900" y1="0" x2="900" y2="630"/>
    <line x1="960" y1="0" x2="960" y2="630"/><line x1="1020" y1="0" x2="1020" y2="630"/>
    <line x1="1080" y1="0" x2="1080" y2="630"/><line x1="1140" y1="0" x2="1140" y2="630"/>
    <line x1="0" y1="60" x2="1200" y2="60"/><line x1="0" y1="120" x2="1200" y2="120"/>
    <line x1="0" y1="180" x2="1200" y2="180"/><line x1="0" y1="240" x2="1200" y2="240"/>
    <line x1="0" y1="300" x2="1200" y2="300"/><line x1="0" y1="360" x2="1200" y2="360"/>
    <line x1="0" y1="420" x2="1200" y2="420"/><line x1="0" y1="480" x2="1200" y2="480"/>
    <line x1="0" y1="540" x2="1200" y2="540"/>
  </g>
  <!-- Highlight circles row -->
  <g transform="translate(600, 280)">
    <!-- Circle 1 -->
    <circle cx="-200" cy="0" r="62" stroke="url(#ring)" stroke-width="3" fill="none"/>
    <circle cx="-200" cy="0" r="55" fill="#1e293b"/>
    <rect x="-225" y="-25" width="50" height="50" rx="8" fill="#0ea5e9" opacity="0.2"/>
    <path d="M-212 -12 L-188 0 L-212 12Z" fill="#0ea5e9" opacity="0.8"/>
    <!-- Circle 2 (center, larger) -->
    <circle cx="0" cy="0" r="78" stroke="url(#ring)" stroke-width="4" fill="none"/>
    <circle cx="0" cy="0" r="70" fill="#1e293b"/>
    <circle cx="0" cy="0" r="28" fill="#0ea5e9" opacity="0.15"/>
    <path d="M0 -20 C12 -20 20 -12 20 0 C20 12 12 20 0 20 C-12 20 -20 12 -20 0 C-20 -12 -12 -20 0 -20Z" fill="none" stroke="#0ea5e9" stroke-width="2.5"/>
    <circle cx="6" cy="-6" r="5" fill="none" stroke="#0ea5e9" stroke-width="2"/>
    <circle cx="0" cy="0" r="3" fill="#0ea5e9"/>
    <!-- Circle 3 -->
    <circle cx="200" cy="0" r="62" stroke="url(#ring)" stroke-width="3" fill="none"/>
    <circle cx="200" cy="0" r="55" fill="#1e293b"/>
    <path d="M185 -10 L195 -10 L195 0 L205 0 L205 10 L195 10 L195 20 L185 20 L185 10 L175 10 L175 0 L185 0Z" fill="#0ea5e9" opacity="0.6"/>
  </g>
  <!-- Star/bookmark icon -->
  <g transform="translate(600, 280)" opacity="0.6">
    <path d="M0 -78 L3 -72 L10 -71 L5 -66 L6 -59 L0 -62 L-6 -59 L-5 -66 L-10 -71 L-3 -72Z" fill="#22d3ee"/>
  </g>
  <!-- Text -->
  <text x="600" y="440" text-anchor="middle" font-family="system-ui, -apple-system, sans-serif" font-size="32" font-weight="700" fill="white" letter-spacing="0.5">Instagram Highlights Viewer</text>
  <text x="600" y="475" text-anchor="middle" font-family="system-ui, -apple-system, sans-serif" font-size="16" fill="#94a3b8" letter-spacing="1">BROWSE SAVED STORIES FROM ANY PUBLIC PROFILE</text>
  <!-- Decorative dots -->
  <circle cx="100" cy="100" r="3" fill="#0ea5e9" opacity="0.3"/>
  <circle cx="1100" cy="530" r="3" fill="#22d3ee" opacity="0.3"/>
  <circle cx="150" cy="500" r="2" fill="#0ea5e9" opacity="0.2"/>
  <circle cx="1050" cy="130" r="2" fill="#22d3ee" opacity="0.2"/>
  <circle cx="950" cy="80" r="4" fill="#0ea5e9" opacity="0.15"/>
  <circle cx="250" cy="550" r="4" fill="#22d3ee" opacity="0.15"/>
</svg>
