<svg xmlns="http://www.w3.org/2000/svg" viewBox="0 0 1200 630" fill="none">
  <defs>
    <linearGradient id="bg" x1="0" y1="0" x2="1200" y2="630" gradientUnits="userSpaceOnUse">
      <stop offset="0%" stop-color="#0f172a"/>
      <stop offset="100%" stop-color="#1e293b"/>
    </linearGradient>
    <radialGradient id="glow1" cx="300" cy="200" r="300" gradientUnits="userSpaceOnUse">
      <stop offset="0%" stop-color="#0ea5e9" stop-opacity="0.15"/>
      <stop offset="100%" stop-color="#0ea5e9" stop-opacity="0"/>
    </radialGradient>
    <radialGradient id="glow2" cx="900" cy="400" r="350" gradientUnits="userSpaceOnUse">
      <stop offset="0%" stop-color="#22d3ee" stop-opacity="0.1"/>
      <stop offset="100%" stop-color="#22d3ee" stop-opacity="0"/>
    </radialGradient>
    <linearGradient id="accent" x1="0" y1="0" x2="1" y2="1">
      <stop offset="0%" stop-color="#0ea5e9"/>
      <stop offset="50%" stop-color="#22d3ee"/>
      <stop offset="100%" stop-color="#0ea5e9"/>
    </linearGradient>
    <linearGradient id="barGrad" x1="0" y1="1" x2="0" y2="0">
      <stop offset="0%" stop-color="#0ea5e9" stop-opacity="0.5"/>
      <stop offset="100%" stop-color="#22d3ee" stop-opacity="0.9"/>
    </linearGradient>
  </defs>
  <rect width="1200" height="630" fill="url(#bg)"/>
  <rect width="1200" height="630" fill="url(#glow1)"/>
  <rect width="1200" height="630" fill="url(#glow2)"/>
  <g opacity="0.03" stroke="#fff" stroke-width="1">
    <line x1="0" y1="0" x2="0" y2="630"/><line x1="60" y1="0" x2="60" y2="630"/><line x1="120" y1="0" x2="120" y2="630"/><line x1="180" y1="0" x2="180" y2="630"/><line x1="240" y1="0" x2="240" y2="630"/><line x1="300" y1="0" x2="300" y2="630"/><line x1="360" y1="0" x2="360" y2="630"/><line x1="420" y1="0" x2="420" y2="630"/><line x1="480" y1="0" x2="480" y2="630"/><line x1="540" y1="0" x2="540" y2="630"/><line x1="600" y1="0" x2="600" y2="630"/><line x1="660" y1="0" x2="660" y2="630"/><line x1="720" y1="0" x2="720" y2="630"/><line x1="780" y1="0" x2="780" y2="630"/><line x1="840" y1="0" x2="840" y2="630"/><line x1="900" y1="0" x2="900" y2="630"/><line x1="960" y1="0" x2="960" y2="630"/><line x1="1020" y1="0" x2="1020" y2="630"/><line x1="1080" y1="0" x2="1080" y2="630"/><line x1="1140" y1="0" x2="1140" y2="630"/>
    <line x1="0" y1="60" x2="1200" y2="60"/><line x1="0" y1="120" x2="1200" y2="120"/><line x1="0" y1="180" x2="1200" y2="180"/><line x1="0" y1="240" x2="1200" y2="240"/><line x1="0" y1="300" x2="1200" y2="300"/><line x1="0" y1="360" x2="1200" y2="360"/><line x1="0" y1="420" x2="1200" y2="420"/><line x1="0" y1="480" x2="1200" y2="480"/><line x1="0" y1="540" x2="1200" y2="540"/>
  </g>
  <!-- Activity heatmap / time pattern -->
  <g transform="translate(600, 220)">
    <rect x="-220" y="-120" width="440" height="250" rx="14" fill="#1e293b" stroke="url(#accent)" stroke-width="2" opacity="0.9"/>
    <!-- Time labels (hours) -->
    <text x="-190" y="-85" font-family="system-ui" font-size="8" fill="#94a3b8" opacity="0.5">6AM</text>
    <text x="-130" y="-85" font-family="system-ui" font-size="8" fill="#94a3b8" opacity="0.5">9AM</text>
    <text x="-70" y="-85" font-family="system-ui" font-size="8" fill="#94a3b8" opacity="0.5">12PM</text>
    <text x="-10" y="-85" font-family="system-ui" font-size="8" fill="#94a3b8" opacity="0.5">3PM</text>
    <text x="50" y="-85" font-family="system-ui" font-size="8" fill="#94a3b8" opacity="0.5">6PM</text>
    <text x="110" y="-85" font-family="system-ui" font-size="8" fill="#94a3b8" opacity="0.5">9PM</text>
    <text x="170" y="-85" font-family="system-ui" font-size="8" fill="#94a3b8" opacity="0.5">12AM</text>
    <!-- Activity bars (posting frequency by hour) -->
    <rect x="-195" y="-10" width="22" height="30" rx="3" fill="url(#barGrad)" opacity="0.3"/>
    <rect x="-165" y="-30" width="22" height="50" rx="3" fill="url(#barGrad)" opacity="0.5"/>
    <rect x="-135" y="-50" width="22" height="70" rx="3" fill="url(#barGrad)" opacity="0.7"/>
    <rect x="-105" y="-70" width="22" height="90" rx="3" fill="url(#barGrad)" opacity="0.9"/>
    <rect x="-75" y="-40" width="22" height="60" rx="3" fill="url(#barGrad)" opacity="0.6"/>
    <rect x="-45" y="-20" width="22" height="40" rx="3" fill="url(#barGrad)" opacity="0.4"/>
    <rect x="-15" y="-35" width="22" height="55" rx="3" fill="url(#barGrad)" opacity="0.5"/>
    <rect x="15" y="-55" width="22" height="75" rx="3" fill="url(#barGrad)" opacity="0.8"/>
    <rect x="45" y="-80" width="22" height="100" rx="3" fill="url(#barGrad)"/>
    <rect x="75" y="-65" width="22" height="85" rx="3" fill="url(#barGrad)" opacity="0.85"/>
    <rect x="105" y="-45" width="22" height="65" rx="3" fill="url(#barGrad)" opacity="0.6"/>
    <rect x="135" y="-25" width="22" height="45" rx="3" fill="url(#barGrad)" opacity="0.4"/>
    <rect x="165" y="-10" width="22" height="30" rx="3" fill="url(#barGrad)" opacity="0.25"/>
    <!-- X axis -->
    <line x1="-200" y1="25" x2="195" y2="25" stroke="#94a3b8" stroke-width="1" opacity="0.2"/>
    <!-- Peak indicator -->
    <g transform="translate(56, -90)">
      <path d="M0,0 L0,8" stroke="#22d3ee" stroke-width="1.5" stroke-dasharray="2 2"/>
      <text x="0" y="-6" text-anchor="middle" font-family="system-ui" font-size="10" font-weight="600" fill="#22d3ee">Peak</text>
    </g>
    <!-- Day labels -->
    <text x="-190" y="55" font-family="system-ui" font-size="9" fill="#94a3b8" opacity="0.5">Mon</text>
    <text x="-190" y="72" font-family="system-ui" font-size="9" fill="#94a3b8" opacity="0.5">Tue</text>
    <text x="-190" y="89" font-family="system-ui" font-size="9" fill="#94a3b8" opacity="0.5">Wed</text>
    <text x="-190" y="106" font-family="system-ui" font-size="9" fill="#94a3b8" opacity="0.5">Thu</text>
    <!-- Mini heatmap dots -->
    <circle cx="-145" cy="52" r="6" fill="#0ea5e9" opacity="0.2"/><circle cx="-115" cy="52" r="6" fill="#0ea5e9" opacity="0.5"/><circle cx="-85" cy="52" r="6" fill="#0ea5e9" opacity="0.8"/><circle cx="-55" cy="52" r="6" fill="#22d3ee" opacity="0.4"/><circle cx="-25" cy="52" r="6" fill="#0ea5e9" opacity="0.3"/>
    <circle cx="-145" cy="69" r="6" fill="#22d3ee" opacity="0.4"/><circle cx="-115" cy="69" r="6" fill="#0ea5e9" opacity="0.3"/><circle cx="-85" cy="69" r="6" fill="#22d3ee" opacity="0.6"/><circle cx="-55" cy="69" r="6" fill="#0ea5e9" opacity="0.9"/><circle cx="-25" cy="69" r="6" fill="#22d3ee" opacity="0.5"/>
    <circle cx="-145" cy="86" r="6" fill="#0ea5e9" opacity="0.6"/><circle cx="-115" cy="86" r="6" fill="#22d3ee" opacity="0.8"/><circle cx="-85" cy="86" r="6" fill="#0ea5e9" opacity="0.4"/><circle cx="-55" cy="86" r="6" fill="#22d3ee" opacity="0.3"/><circle cx="-25" cy="86" r="6" fill="#0ea5e9" opacity="0.7"/>
    <circle cx="-145" cy="103" r="6" fill="#22d3ee" opacity="0.3"/><circle cx="-115" cy="103" r="6" fill="#0ea5e9" opacity="0.5"/><circle cx="-85" cy="103" r="6" fill="#22d3ee" opacity="0.7"/><circle cx="-55" cy="103" r="6" fill="#0ea5e9" opacity="0.6"/><circle cx="-25" cy="103" r="6" fill="#22d3ee" opacity="0.9"/>
  </g>
  <text x="600" y="440" text-anchor="middle" font-family="system-ui, -apple-system, sans-serif" font-size="32" font-weight="700" fill="white" letter-spacing="0.5">Instagram Activity Analyzer</text>
  <text x="600" y="475" text-anchor="middle" font-family="system-ui, -apple-system, sans-serif" font-size="16" fill="#94a3b8" letter-spacing="1">DISCOVER POSTING PATTERNS AND BEST TIMES</text>
  <circle cx="100" cy="100" r="3" fill="#0ea5e9" opacity="0.3"/>
  <circle cx="1100" cy="530" r="3" fill="#22d3ee" opacity="0.3"/>
  <circle cx="150" cy="500" r="2" fill="#0ea5e9" opacity="0.2"/>
  <circle cx="1050" cy="130" r="2" fill="#22d3ee" opacity="0.2"/>
</svg>