<svg xmlns="http://www.w3.org/2000/svg" viewBox="0 0 1200 630" fill="none">
  <defs>
    <linearGradient id="bg" x1="0" y1="0" x2="1200" y2="630" gradientUnits="userSpaceOnUse">
      <stop offset="0%" stop-color="#0f172a"/>
      <stop offset="100%" stop-color="#1e293b"/>
    </linearGradient>
    <radialGradient id="glow1" cx="350" cy="280" r="380" gradientUnits="userSpaceOnUse">
      <stop offset="0%" stop-color="#0ea5e9" stop-opacity="0.12"/>
      <stop offset="100%" stop-color="#0ea5e9" stop-opacity="0"/>
    </radialGradient>
    <radialGradient id="glow2" cx="850" cy="350" r="320" gradientUnits="userSpaceOnUse">
      <stop offset="0%" stop-color="#22d3ee" stop-opacity="0.08"/>
      <stop offset="100%" stop-color="#22d3ee" stop-opacity="0"/>
    </radialGradient>
    <linearGradient id="accent" x1="0" y1="0" x2="0" y2="1">
      <stop offset="0%" stop-color="#0ea5e9"/>
      <stop offset="100%" stop-color="#22d3ee"/>
    </linearGradient>
  </defs>
  <rect width="1200" height="630" fill="url(#bg)"/>
  <rect width="1200" height="630" fill="url(#glow1)"/>
  <rect width="1200" height="630" fill="url(#glow2)"/>
  <!-- Grid -->
  <g opacity="0.03" stroke="#fff" stroke-width="1">
    <line x1="0" y1="0" x2="0" y2="630"/><line x1="60" y1="0" x2="60" y2="630"/>
    <line x1="120" y1="0" x2="120" y2="630"/><line x1="180" y1="0" x2="180" y2="630"/>
    <line x1="240" y1="0" x2="240" y2="630"/><line x1="300" y1="0" x2="300" y2="630"/>
    <line x1="360" y1="0" x2="360" y2="630"/><line x1="420" y1="0" x2="420" y2="630"/>
    <line x1="480" y1="0" x2="480" y2="630"/><line x1="540" y1="0" x2="540" y2="630"/>
    <line x1="600" y1="0" x2="600" y2="630"/><line x1="660" y1="0" x2="660" y2="630"/>
    <line x1="720" y1="0" x2="720" y2="630"/><line x1="780" y1="0" x2="780" y2="630"/>
    <line x1="840" y1="0" x2="840" y2="630"/><line x1="900" y1="0" x2="900" y2="630"/>
    <line x1="960" y1="0" x2="960" y2="630"/><line x1="1020" y1="0" x2="1020" y2="630"/>
    <line x1="1080" y1="0" x2="1080" y2="630"/><line x1="1140" y1="0" x2="1140" y2="630"/>
    <line x1="0" y1="60" x2="1200" y2="60"/><line x1="0" y1="120" x2="1200" y2="120"/>
    <line x1="0" y1="180" x2="1200" y2="180"/><line x1="0" y1="240" x2="1200" y2="240"/>
    <line x1="0" y1="300" x2="1200" y2="300"/><line x1="0" y1="360" x2="1200" y2="360"/>
    <line x1="0" y1="420" x2="1200" y2="420"/><line x1="0" y1="480" x2="1200" y2="480"/>
    <line x1="0" y1="540" x2="1200" y2="540"/>
  </g>
  <!-- Camera body -->
  <g transform="translate(480, 220)">
    <rect x="-80" y="-50" width="160" height="110" rx="14" fill="#1e293b" stroke="#334155" stroke-width="2"/>
    <!-- Lens outer ring -->
    <circle cx="0" cy="10" r="38" fill="none" stroke="#0ea5e9" stroke-width="2.5" opacity="0.6"/>
    <circle cx="0" cy="10" r="30" fill="#0f172a" stroke="#334155" stroke-width="1.5"/>
    <circle cx="0" cy="10" r="22" fill="none" stroke="#0ea5e9" stroke-width="1" opacity="0.3"/>
    <circle cx="0" cy="10" r="14" fill="#1e293b"/>
    <circle cx="0" cy="10" r="6" fill="#0ea5e9" opacity="0.4"/>
    <!-- Flash -->
    <circle cx="50" cy="-25" r="6" fill="#22d3ee" opacity="0.3"/>
    <circle cx="50" cy="-25" r="3" fill="#22d3ee" opacity="0.5"/>
    <!-- Viewfinder bump -->
    <rect x="-25" y="-62" width="50" height="16" rx="4" fill="#1e293b" stroke="#334155" stroke-width="1.5"/>
    <!-- Shutter button -->
    <circle cx="35" cy="-62" r="8" fill="none" stroke="#0ea5e9" stroke-width="1.5" opacity="0.5"/>
    <circle cx="35" cy="-62" r="4" fill="#0ea5e9" opacity="0.3"/>
  </g>
  <!-- Photo stack behind camera -->
  <g transform="translate(480, 220)">
    <!-- Back photo -->
    <rect x="100" y="-30" width="90" height="70" rx="6" fill="#1e293b" stroke="#334155" stroke-width="1.5" transform="rotate(8, 145, 5)"/>
    <!-- Middle photo -->
    <rect x="95" y="-35" width="90" height="70" rx="6" fill="#1e293b" stroke="#334155" stroke-width="1.5" transform="rotate(-4, 140, 0)"/>
    <!-- Front photo -->
    <rect x="90" y="-40" width="90" height="70" rx="6" fill="#1e293b" stroke="#0ea5e9" stroke-width="1.5" opacity="0.8"/>
    <!-- Image icon on front photo -->
    <circle cx="120" cy="-18" r="6" fill="none" stroke="#22d3ee" stroke-width="1" opacity="0.6"/>
    <path d="M100 16 L115 -2 L130 10 L140 2 L155 16" stroke="#0ea5e9" stroke-width="1.5" fill="none" opacity="0.5" stroke-linejoin="round"/>
  </g>
  <!-- Download arrow -->
  <g transform="translate(680, 300)">
    <circle cx="0" cy="0" r="32" fill="#0ea5e9" opacity="0.08" stroke="#0ea5e9" stroke-width="1.5" opacity="0.3"/>
    <rect x="-3" y="-18" width="6" height="22" rx="3" fill="url(#accent)"/>
    <path d="M-12 4 L0 18 L12 4" stroke="url(#accent)" stroke-width="3.5" fill="none" stroke-linecap="round" stroke-linejoin="round"/>
    <rect x="-14" y="22" width="28" height="3" rx="1.5" fill="url(#accent)" opacity="0.5"/>
  </g>
  <!-- HD badge -->
  <g transform="translate(770, 190)">
    <rect x="-22" y="-12" width="44" height="24" rx="5" fill="#0ea5e9" opacity="0.2" stroke="#0ea5e9" stroke-width="1.5"/>
    <text x="0" y="5" text-anchor="middle" font-family="system-ui, sans-serif" font-size="13" font-weight="700" fill="#0ea5e9">HD</text>
  </g>
  <!-- Carousel dots -->
  <g transform="translate(480, 350)">
    <circle cx="-12" cy="0" r="4" fill="#0ea5e9" opacity="0.7"/>
    <circle cx="2" cy="0" r="4" fill="#0ea5e9" opacity="0.3"/>
    <circle cx="16" cy="0" r="4" fill="#0ea5e9" opacity="0.3"/>
  </g>
  <!-- Dashed orbit -->
  <circle cx="530" cy="260" r="160" fill="none" stroke="#0ea5e9" stroke-width="1" opacity="0.1" stroke-dasharray="8 8"/>
  <!-- Text -->
  <text x="600" y="440" text-anchor="middle" font-family="system-ui, -apple-system, sans-serif" font-size="32" font-weight="700" fill="white" letter-spacing="0.5">Instagram Photo Downloader</text>
  <text x="600" y="475" text-anchor="middle" font-family="system-ui, -apple-system, sans-serif" font-size="16" fill="#94a3b8" letter-spacing="1">SAVE PHOTOS &amp; CAROUSEL POSTS IN HD</text>
  <!-- Decorative dots -->
  <circle cx="130" cy="85" r="3" fill="#0ea5e9" opacity="0.3"/>
  <circle cx="1070" cy="545" r="3" fill="#22d3ee" opacity="0.3"/>
  <circle cx="190" cy="510" r="2" fill="#0ea5e9" opacity="0.2"/>
  <circle cx="1010" cy="100" r="2" fill="#22d3ee" opacity="0.2"/>
  <circle cx="930" cy="75" r="4" fill="#0ea5e9" opacity="0.15"/>
  <circle cx="270" cy="555" r="4" fill="#22d3ee" opacity="0.15"/>
</svg>