<svg xmlns="http://www.w3.org/2000/svg" viewBox="0 0 1200 630" fill="none">
  <defs>
    <linearGradient id="bg" x1="0" y1="0" x2="1200" y2="630" gradientUnits="userSpaceOnUse">
      <stop offset="0%" stop-color="#0f172a"/>
      <stop offset="100%" stop-color="#1e293b"/>
    </linearGradient>
    <radialGradient id="glow1" cx="300" cy="200" r="300" gradientUnits="userSpaceOnUse">
      <stop offset="0%" stop-color="#0ea5e9" stop-opacity="0.15"/>
      <stop offset="100%" stop-color="#0ea5e9" stop-opacity="0"/>
    </radialGradient>
    <radialGradient id="glow2" cx="900" cy="400" r="350" gradientUnits="userSpaceOnUse">
      <stop offset="0%" stop-color="#22d3ee" stop-opacity="0.1"/>
      <stop offset="100%" stop-color="#22d3ee" stop-opacity="0"/>
    </radialGradient>
    <linearGradient id="accent" x1="0" y1="0" x2="1" y2="1">
      <stop offset="0%" stop-color="#0ea5e9"/>
      <stop offset="50%" stop-color="#22d3ee"/>
      <stop offset="100%" stop-color="#0ea5e9"/>
    </linearGradient>
  </defs>
  <rect width="1200" height="630" fill="url(#bg)"/>
  <rect width="1200" height="630" fill="url(#glow1)"/>
  <rect width="1200" height="630" fill="url(#glow2)"/>
  <g opacity="0.03" stroke="#fff" stroke-width="1">
    <line x1="0" y1="0" x2="0" y2="630"/><line x1="60" y1="0" x2="60" y2="630"/><line x1="120" y1="0" x2="120" y2="630"/><line x1="180" y1="0" x2="180" y2="630"/><line x1="240" y1="0" x2="240" y2="630"/><line x1="300" y1="0" x2="300" y2="630"/><line x1="360" y1="0" x2="360" y2="630"/><line x1="420" y1="0" x2="420" y2="630"/><line x1="480" y1="0" x2="480" y2="630"/><line x1="540" y1="0" x2="540" y2="630"/><line x1="600" y1="0" x2="600" y2="630"/><line x1="660" y1="0" x2="660" y2="630"/><line x1="720" y1="0" x2="720" y2="630"/><line x1="780" y1="0" x2="780" y2="630"/><line x1="840" y1="0" x2="840" y2="630"/><line x1="900" y1="0" x2="900" y2="630"/><line x1="960" y1="0" x2="960" y2="630"/><line x1="1020" y1="0" x2="1020" y2="630"/><line x1="1080" y1="0" x2="1080" y2="630"/><line x1="1140" y1="0" x2="1140" y2="630"/>
    <line x1="0" y1="60" x2="1200" y2="60"/><line x1="0" y1="120" x2="1200" y2="120"/><line x1="0" y1="180" x2="1200" y2="180"/><line x1="0" y1="240" x2="1200" y2="240"/><line x1="0" y1="300" x2="1200" y2="300"/><line x1="0" y1="360" x2="1200" y2="360"/><line x1="0" y1="420" x2="1200" y2="420"/><line x1="0" y1="480" x2="1200" y2="480"/><line x1="0" y1="540" x2="1200" y2="540"/>
  </g>
  <!-- Large # symbol -->
  <g transform="translate(600, 220)">
    <text x="0" y="30" text-anchor="middle" font-family="system-ui" font-size="140" font-weight="800" fill="#0ea5e9" opacity="0.08">#</text>
    <!-- Hashtag tags floating around -->
    <rect x="-180" y="-90" width="120" height="32" rx="16" fill="#0ea5e9" opacity="0.12" stroke="#0ea5e9" stroke-width="1.5"/>
    <text x="-120" y="-69" text-anchor="middle" font-family="system-ui" font-size="12" font-weight="600" fill="#0ea5e9" opacity="0.8">#instagram</text>
    <rect x="60" y="-100" width="140" height="32" rx="16" fill="#22d3ee" opacity="0.12" stroke="#22d3ee" stroke-width="1.5"/>
    <text x="130" y="-79" text-anchor="middle" font-family="system-ui" font-size="12" font-weight="600" fill="#22d3ee" opacity="0.8">#socialmedia</text>
    <rect x="-200" y="-40" width="100" height="32" rx="16" fill="#22d3ee" opacity="0.12" stroke="#22d3ee" stroke-width="1.5"/>
    <text x="-150" y="-19" text-anchor="middle" font-family="system-ui" font-size="12" font-weight="600" fill="#22d3ee" opacity="0.8">#growth</text>
    <rect x="100" y="-40" width="110" height="32" rx="16" fill="#0ea5e9" opacity="0.12" stroke="#0ea5e9" stroke-width="1.5"/>
    <text x="155" y="-19" text-anchor="middle" font-family="system-ui" font-size="12" font-weight="600" fill="#0ea5e9" opacity="0.8">#trending</text>
    <rect x="-140" y="20" width="130" height="32" rx="16" fill="#0ea5e9" opacity="0.12" stroke="#0ea5e9" stroke-width="1.5"/>
    <text x="-75" y="41" text-anchor="middle" font-family="system-ui" font-size="12" font-weight="600" fill="#0ea5e9" opacity="0.8">#marketing</text>
    <rect x="20" y="30" width="100" height="32" rx="16" fill="#22d3ee" opacity="0.12" stroke="#22d3ee" stroke-width="1.5"/>
    <text x="70" y="51" text-anchor="middle" font-family="system-ui" font-size="12" font-weight="600" fill="#22d3ee" opacity="0.8">#reels</text>
    <rect x="-80" y="75" width="160" height="32" rx="16" fill="#22d3ee" opacity="0.12" stroke="#22d3ee" stroke-width="1.5"/>
    <text x="0" y="96" text-anchor="middle" font-family="system-ui" font-size="12" font-weight="600" fill="#22d3ee" opacity="0.8">#contentcreator</text>
    <!-- Reach indicator -->
    <g transform="translate(200, 60)" opacity="0.5">
      <path d="M0,-14 L0,14 M-10,4 L0,14 L10,4" fill="none" stroke="#22c55e" stroke-width="2" stroke-linecap="round" stroke-linejoin="round" transform="rotate(180)"/>
      <text x="18" y="5" font-family="system-ui" font-size="11" font-weight="600" fill="#22c55e">+340%</text>
    </g>
  </g>
  <text x="600" y="440" text-anchor="middle" font-family="system-ui, -apple-system, sans-serif" font-size="32" font-weight="700" fill="white" letter-spacing="0.5">Instagram Hashtag Strategy</text>
  <text x="600" y="475" text-anchor="middle" font-family="system-ui, -apple-system, sans-serif" font-size="16" fill="#94a3b8" letter-spacing="1">MAXIMIZE REACH WITH THE RIGHT HASHTAGS</text>
  <circle cx="100" cy="100" r="3" fill="#0ea5e9" opacity="0.3"/>
  <circle cx="1100" cy="530" r="3" fill="#22d3ee" opacity="0.3"/>
  <circle cx="150" cy="500" r="2" fill="#0ea5e9" opacity="0.2"/>
  <circle cx="1050" cy="130" r="2" fill="#22d3ee" opacity="0.2"/>
</svg>